<svg version="1.1" xmlns="http://www.w3.org/2000/svg" viewBox="0 0 5423.390070645015 2443.417617793386" width="5423.390070645015" height="2443.417617793386" filter="invert(93%) hue-rotate(180deg)">
  <!-- svg-source:excalidraw -->
  
  <defs>
    <style class="style-fonts">
      @font-face {
        font-family: "Virgil";
        src: url("https://excalidraw.com/Virgil.woff2");
      }
      @font-face {
        font-family: "Cascadia";
        src: url("https://excalidraw.com/Cascadia.woff2");
      }
      @font-face {
        font-family: "Assistant";
        src: url("https://excalidraw.com/Assistant-Regular.woff2");
      }
    </style>
    
  </defs>
  <rect x="0" y="0" width="5423.390070645015" height="2443.417617793386" fill="#ffffff"></rect><g stroke-linecap="round"><g transform="translate(1279.5218648289665 106.75095112672076) rotate(0 -16.66666666666788 1126.6666666666665)"><path d="M-0.49 -0.39 C-5.78 375.46, -26.81 1878.43, -32.22 2254.12 M1.46 -1.64 C-3.86 373.97, -26.75 1876.86, -32.58 2252.41" stroke="#2f9e44" stroke-width="4" fill="none"></path></g></g><mask></mask><g stroke-linecap="round"><g transform="translate(11.188531495630741 215.08428446005414) rotate(0 2700.833333333332 -5.833333333333343)"><path d="M-1.19 0.4 C899.02 -1.55, 4501.55 -10.11, 5402.2 -12.04 M0.39 -0.44 C900.4 -2.18, 4501.18 -8.56, 5401.53 -10.69" stroke="#2f9e44" stroke-width="4" fill="none"></path></g></g><mask></mask><g transform="translate(505.9835949014305 30.084284460054135) rotate(0 106.28085371376801 52.36666666666663)"><text x="0" y="83.78844542572457" font-family="Helvetica, Segoe UI Emoji" font-size="91.07246376811588px" fill="#2f9e44" text-anchor="start" style="white-space: pre;" direction="ltr" dominant-baseline="alphabetic">stack</text></g><g transform="translate(1992.855198162295 10) rotate(0 143.35267459653187 65.74214223002701)"><text x="0" y="105.18966065711354" font-family="Helvetica, Segoe UI Emoji" font-size="114.33416040004698px" fill="#2f9e44" text-anchor="start" style="white-space: pre;" direction="ltr" dominant-baseline="alphabetic">heap</text></g><g transform="translate(604.3855706713584 670.7679244287107) rotate(0 178.06057739257812 73.69151334900488)"><text x="0" y="117.90892446687764" font-family="Helvetica, Segoe UI Emoji" font-size="128.1591536504434px" fill="#2f9e44" text-anchor="start" style="white-space: pre;" direction="ltr" dominant-baseline="alphabetic">TP* tp</text></g><g stroke-linecap="round"><g transform="translate(962.8488903115867 742.8040875972881) rotate(0 185.00315392535776 -10.68844343606969)"><path d="M-0.02 0.15 C61.73 -3.61, 307.88 -17.97, 369.48 -21.59 M-1.49 -0.81 C60.14 -4.47, 306.58 -16.91, 368.25 -20.17" stroke="#1e1e1e" stroke-width="4" fill="none"></path></g><g transform="translate(962.8488903115867 742.8040875972881) rotate(0 185.00315392535776 -10.68844343606969)"><path d="M345.23 -10.42 C350.35 -13.39, 354.69 -15.36, 368.25 -20.17 M345.23 -10.42 C351.59 -12.97, 357.58 -16.33, 368.25 -20.17" stroke="#1e1e1e" stroke-width="4" fill="none"></path></g><g transform="translate(962.8488903115867 742.8040875972881) rotate(0 185.00315392535776 -10.68844343606969)"><path d="M344.35 -27.5 C349.8 -26.8, 354.32 -25.1, 368.25 -20.17 M344.35 -27.5 C351.03 -25.18, 357.27 -23.68, 368.25 -20.17" stroke="#1e1e1e" stroke-width="4" fill="none"></path></g></g><mask></mask><g stroke-linecap="round" transform="translate(1352.8551981623023 456.75095112672057) rotate(0 503.3333333333321 348.33333333333326)"><path d="M32 0 C241.2 -1.2, 450.96 -0.15, 974.67 0 M32 0 C223.64 3.39, 415.66 4.01, 974.67 0 M974.67 0 C995.49 0.56, 1007.28 11.85, 1006.67 32 M974.67 0 C996.59 0.98, 1006.66 10.98, 1006.67 32 M1006.67 32 C1007.75 175.59, 1008.85 319.15, 1006.67 664.67 M1006.67 32 C1006.43 266.38, 1006.72 500.37, 1006.67 664.67 M1006.67 664.67 C1006.02 687.71, 994.48 698.28, 974.67 696.67 M1006.67 664.67 C1008.43 685.33, 998.17 695.68, 974.67 696.67 M974.67 696.67 C606.63 694.61, 238.48 695.68, 32 696.67 M974.67 696.67 C746.21 694.75, 517.31 695.37, 32 696.67 M32 696.67 C9.43 697.74, -1.65 684.99, 0 664.67 M32 696.67 C11.67 694.84, 1.14 688.24, 0 664.67 M0 664.67 C-1.11 458.07, -0.19 249.91, 0 32 M0 664.67 C2.31 490.52, 1.97 316.92, 0 32 M0 32 C-1.67 9.94, 9.12 1.15, 32 0 M0 32 C-1.59 11.46, 10.14 -1.95, 32 0" stroke="#1e1e1e" stroke-width="4" fill="none"></path></g><g transform="translate(1579.5218648289665 306.9976334061911) rotate(0 36.67838541666788 50.576658860264644)"><text x="0" y="80.92437213358582" font-family="Helvetica, Segoe UI Emoji" font-size="87.95940671350375px" fill="#1e1e1e" text-anchor="start" style="white-space: pre;" direction="ltr" dominant-baseline="alphabetic">tp</text></g><g stroke-linecap="round"><g transform="translate(1346.1885314956307 730.0842844600536) rotate(0 503.33333333333576 -1.6666666666667425)"><path d="M-0.8 -0.96 C166.8 -1.35, 838.57 -2.7, 1006.41 -3.05 M0.97 1.15 C168.32 0.44, 837.95 -4.56, 1005.32 -5.03" stroke="#1e1e1e" stroke-width="4" fill="none"></path></g></g><mask></mask><g stroke-linecap="round"><g transform="translate(1363.3881712118746 945.3600402056455) rotate(0 495.00000000000364 -3.3333333333332575)"><path d="M-0.34 -0.67 C164.67 -1.78, 825.64 -5.63, 990.52 -6.68 M1.68 1.59 C166.53 0.69, 824.91 -3.92, 989.84 -5.16" stroke="#1e1e1e" stroke-width="4" fill="none"></path></g></g><mask></mask><g transform="translate(1410.5830627456307 546.7509511267203) rotate(0 473.1170654296875 37.36666666666662)"><text x="0" y="59.78793591485499" font-family="Helvetica, Segoe UI Emoji" font-size="64.98550724637673px" fill="#1971c2" text-anchor="start" style="white-space: pre;" direction="ltr" dominant-baseline="alphabetic">ABB_T *pokemones_disponibles</text></g><g transform="translate(1569.0464009617863 789.384284460054) rotate(0 288.98089599609375 37.36666666666662)"><text x="0" y="59.78793591485499" font-family="Helvetica, Segoe UI Emoji" font-size="64.98550724637673px" fill="#1e1e1e" text-anchor="start" style="white-space: pre;" direction="ltr" dominant-baseline="alphabetic">jugador_t jugador_1</text></g><g transform="translate(1567.2076354995297 992.7176177933873) rotate(0 288.98089599609375 37.36666666666662)"><text x="0" y="59.78793591485499" font-family="Helvetica, Segoe UI Emoji" font-size="64.98550724637673px" fill="#1e1e1e" text-anchor="start" style="white-space: pre;" direction="ltr" dominant-baseline="alphabetic">jugador_t jugador_2</text></g><g stroke-linecap="round"><g transform="translate(2039.5218648289665 1100.0842844600538) rotate(0 -1.6666666666678793 118.33333333333326)"><path d="M0.43 -0.32 C-0.02 39.07, -1.94 197.49, -2.61 236.84 M-0.8 -1.53 C-1.35 38.03, -2.56 198.78, -3.18 238.47" stroke="#e03131" stroke-width="4" fill="none"></path></g><g transform="translate(2039.5218648289665 1100.0842844600538) rotate(0 -1.6666666666678793 118.33333333333326)"><path d="M-11.47 214.88 C-9.37 223.26, -6.02 228.8, -3.18 238.47 M-11.47 214.88 C-9.97 220.16, -8.31 226.27, -3.18 238.47" stroke="#e03131" stroke-width="4" fill="none"></path></g><g transform="translate(2039.5218648289665 1100.0842844600538) rotate(0 -1.6666666666678793 118.33333333333326)"><path d="M5.63 215.07 C2.51 223.46, 0.64 228.94, -3.18 238.47 M5.63 215.07 C3.3 220.26, 1.13 226.32, -3.18 238.47" stroke="#e03131" stroke-width="4" fill="none"></path></g></g><mask></mask><g stroke-linecap="round"><g transform="translate(2186.1885314956307 830.0842844600538) rotate(0 288.753540147929 -29.166666666666742)"><path d="M-0.13 -1.06 C48.94 -10.43, 198.85 -56.81, 295.2 -57.4 C391.55 -57.98, 531.02 -13.13, 577.97 -4.57 M-1.66 1 C47.7 -8.6, 200.79 -57.76, 297.31 -59.03 C393.83 -60.3, 530.86 -15.53, 577.45 -6.6" stroke="#e03131" stroke-width="4" fill="none"></path></g><g transform="translate(2186.1885314956307 830.0842844600538) rotate(0 288.753540147929 -29.166666666666742)"><path d="M552.6 -3.93 C559.84 -6.76, 572.15 -5.06, 577.45 -6.6 M552.6 -3.93 C562.03 -5.62, 570.45 -5.86, 577.45 -6.6" stroke="#e03131" stroke-width="4" fill="none"></path></g><g transform="translate(2186.1885314956307 830.0842844600538) rotate(0 288.753540147929 -29.166666666666742)"><path d="M556.69 -20.53 C562.29 -17.37, 573.12 -9.66, 577.45 -6.6 M556.69 -20.53 C564.61 -16.44, 571.59 -10.87, 577.45 -6.6" stroke="#e03131" stroke-width="4" fill="none"></path></g></g><mask></mask><g stroke-linecap="round" transform="translate(2939.521864828974 750.0842844600537) rotate(0 551.6666666666715 165)"><path d="M32 0 C297.88 -3.37, 563.15 -4.62, 1071.33 0 M32 0 C249.54 -3.43, 467.03 -3.74, 1071.33 0 M1071.33 0 C1091.94 -1.88, 1102.66 11.39, 1103.33 32 M1071.33 0 C1094.31 0.22, 1105.28 9.42, 1103.33 32 M1103.33 32 C1101.32 123.13, 1100.31 215.46, 1103.33 298 M1103.33 32 C1104.18 113.69, 1103.02 194.79, 1103.33 298 M1103.33 298 C1105.15 319.02, 1092.71 330.43, 1071.33 330 M1103.33 298 C1103.22 321.01, 1092.76 328.24, 1071.33 330 M1071.33 330 C855.06 333.48, 638.99 333.37, 32 330 M1071.33 330 C768.51 332.18, 465.97 332.6, 32 330 M32 330 C12.53 329.85, 1.54 320.97, 0 298 M32 330 C8.7 332.17, -2.18 320.36, 0 298 M0 298 C-0.02 217.83, -0.18 133.48, 0 32 M0 298 C0.66 239.65, -0.55 180.66, 0 32 M0 32 C-1.01 9.94, 9.66 -1.74, 32 0 M0 32 C-0.43 11.15, 9.43 2.13, 32 0" stroke="#e03131" stroke-width="4" fill="none"></path></g><g transform="translate(2665.3551981623023 830.917617793387) rotate(0 125.14159393310547 32.36666666666662)"><text x="0" y="51.78776607789852" font-family="Helvetica, Segoe UI Emoji" font-size="56.28985507246373px" fill="#e03131" text-anchor="start" style="white-space: pre;" direction="ltr" dominant-baseline="alphabetic">jugador_1</text></g><g stroke-linecap="round"><g transform="translate(2942.8551981623023 913.417617793387) rotate(0 548.3333333333358 -1.6666666666667425)"><path d="M-1.14 -1.02 C181.51 -1.45, 912.97 -2.45, 1096.02 -2.64 M0.47 1.06 C183.5 0.29, 915.7 -3.58, 1098.39 -4.4" stroke="#1e1e1e" stroke-width="4" fill="none"></path></g></g><mask></mask><g transform="translate(2984.7970006985342 810.0842844600537) rotate(0 480.04437255859375 27.366666666666617)"><text x="0" y="43.787596240941966" font-family="Helvetica, Segoe UI Emoji" font-size="47.59420289855066px" fill="#2f9e44" text-anchor="start" style="white-space: pre;" direction="ltr" dominant-baseline="alphabetic">struct pokemon_info *pokemon_seleccionado</text></g><g transform="translate(3136.1885314956453 960.0842844600537) rotate(0 248.75021229619233 49.0188118811879)"><text x="0" y="78.43176405106507" font-family="Helvetica, Segoe UI Emoji" font-size="85.25010761945721px" fill="#f08c00" text-anchor="start" style="white-space: pre;" direction="ltr" dominant-baseline="alphabetic">lista_t *pista</text></g><g stroke-linecap="round" transform="translate(1601.1885314956453 1498.417617793387) rotate(0 551.6666666666715 165)"><path d="M32 0 C255.49 3.18, 479.53 2.36, 1071.33 0 M32 0 C316.72 1.03, 601.57 1.41, 1071.33 0 M1071.33 0 C1091.42 0.44, 1103.37 11.64, 1103.33 32 M1071.33 0 C1091.65 -0.54, 1103.44 12.49, 1103.33 32 M1103.33 32 C1101.59 100.78, 1102.05 171.51, 1103.33 298 M1103.33 32 C1105.17 99.09, 1105.32 166.17, 1103.33 298 M1103.33 298 C1103.12 321.13, 1094.47 330.93, 1071.33 330 M1103.33 298 C1104.02 317.96, 1091.92 329.91, 1071.33 330 M1071.33 330 C801.35 330.93, 531.79 331.03, 32 330 M1071.33 330 C807.88 327.54, 543.69 327.37, 32 330 M32 330 C11.71 330.95, -1.78 321, 0 298 M32 330 C12.02 329.05, -0.68 321.38, 0 298 M0 298 C-0.81 242.94, -0.7 187.37, 0 32 M0 298 C-2.55 213.7, -2.46 129.92, 0 32 M0 32 C0.69 11.37, 11.12 -1.91, 32 0 M0 32 C0.89 10.59, 11.5 -1.06, 32 0" stroke="#e03131" stroke-width="4" fill="none"></path></g><g transform="translate(1824.5218648289738 1391.7509511267206) rotate(0 125.14159393310547 32.366666666666674)"><text x="0" y="51.78776607789852" font-family="Helvetica, Segoe UI Emoji" font-size="56.28985507246373px" fill="#e03131" text-anchor="start" style="white-space: pre;" direction="ltr" dominant-baseline="alphabetic">jugador_2</text></g><g stroke-linecap="round"><g transform="translate(1604.5218648289738 1661.7509511267208) rotate(0 548.3333333333358 -1.6666666666667425)"><path d="M-0.63 -0.31 C182.21 -0.8, 914.87 -3.04, 1097.62 -3.74 M1.24 -1.52 C183.95 -1.77, 914.32 -2.04, 1097.18 -2.42" stroke="#1e1e1e" stroke-width="4" fill="none"></path></g></g><mask></mask><g transform="translate(1646.4636673651985 1558.417617793387) rotate(0 480.04437255859375 27.366666666666674)"><text x="0" y="43.787596240941966" font-family="Helvetica, Segoe UI Emoji" font-size="47.59420289855066px" fill="#2f9e44" text-anchor="start" style="white-space: pre;" direction="ltr" dominant-baseline="alphabetic">struct pokemon_info *pokemon_seleccionado</text></g><g transform="translate(1797.8551981623168 1708.4176177933869) rotate(0 240.29256774607347 47.3521452145211)"><text x="0" y="75.76504077207929" font-family="Helvetica, Segoe UI Emoji" font-size="82.35155689481923px" fill="#f08c00" text-anchor="start" style="white-space: pre;" direction="ltr" dominant-baseline="alphabetic">lista_t *pista</text></g><g stroke-linecap="round" transform="translate(2856.188531495609 1823.4176177933862) rotate(0 550 305)"><path d="M32 0 C264.92 -3.21, 501.36 -1.9, 1068 0 C1091.8 -2.4, 1100.6 12.47, 1100 32 C1098.47 245.35, 1097.55 459.14, 1100 578 C1097.6 597.29, 1088.12 611.26, 1068 610 C795.89 605.83, 526.14 606.61, 32 610 C10.6 612.38, -2.7 602.08, 0 578 C-3.77 417.28, -4.36 258.08, 0 32 C0.64 8.79, 14.04 2.14, 32 0" stroke="none" stroke-width="0" fill="#b2f2bb"></path><path d="M32 0 C405.4 3.51, 779.73 3.32, 1068 0 M32 0 C440.69 2.23, 849.17 2.7, 1068 0 M1068 0 C1088.61 1.22, 1101.51 10.82, 1100 32 M1068 0 C1091.51 -1.16, 1102.25 8.76, 1100 32 M1100 32 C1098.63 158.33, 1098.98 284.81, 1100 578 M1100 32 C1099.7 155.39, 1100.1 278.79, 1100 578 M1100 578 C1100 598.28, 1090.34 611.32, 1068 610 M1100 578 C1098.32 599.42, 1088.13 608.74, 1068 610 M1068 610 C847.02 611.09, 627.81 611.83, 32 610 M1068 610 C800.42 613.59, 532.71 613.65, 32 610 M32 610 C8.85 611.13, -0.19 601.2, 0 578 M32 610 C11.79 611.71, 1.81 597.04, 0 578 M0 578 C-0.63 374.79, -1.22 172.66, 0 32 M0 578 C-0.53 388.14, -0.35 198.14, 0 32 M0 32 C-0.77 10.11, 9.9 -1.53, 32 0 M0 32 C-1.58 11.43, 10.2 1.84, 32 0" stroke="#2f9e44" stroke-width="4" fill="none"></path></g><g stroke-linecap="round"><g transform="translate(2844.2290168142426 1971.7551039468767) rotate(0 548.3333333333358 -1.6666666666667425)"><path d="M1.17 0.53 C183.65 0.04, 913.58 -2.8, 1096 -3.57 M0.32 -0.24 C183.1 -0.49, 915.4 -1.66, 1098.36 -2.16" stroke="#1e1e1e" stroke-width="4" fill="none"></path></g></g><mask></mask><g stroke-linecap="round"><g transform="translate(2860.1781947436903 2128.2737221926495) rotate(0 548.3333333333358 -1.6666666666667425)"><path d="M1.15 -1.02 C183.86 -1.62, 914.43 -2.78, 1097.11 -3.22 M0.29 1.05 C182.81 0.64, 913.65 -1.02, 1096.4 -1.62" stroke="#1e1e1e" stroke-width="4" fill="none"></path></g></g><mask></mask><g stroke-linecap="round"><g transform="translate(2860.1781947436903 2291.607055525983) rotate(0 548.3333333333358 -1.6666666666667425)"><path d="M-0.34 -0.68 C182.38 -1.47, 913.6 -3.62, 1096.45 -4.16 M1.68 1.58 C184.22 0.87, 913 -2.32, 1095.39 -3.06" stroke="#1e1e1e" stroke-width="4" fill="none"></path></g></g><mask></mask><g transform="translate(3062.8551981622804 1746.171029507066) rotate(0 237.46516927083212 25.989960809826812)"><text x="0" y="41.58482010689177" font-family="Helvetica, Segoe UI Emoji" font-size="45.19993184317713px" fill="#2f9e44" text-anchor="start" style="white-space: pre;" direction="ltr" dominant-baseline="alphabetic">pokemon_seleccionado</text></g><g transform="translate(3042.855198162266 1871.1452448039452) rotate(0 240.70670572916424 40.16951982805415)"><text x="0" y="64.27259617868509" font-family="Helvetica, Segoe UI Emoji" font-size="69.86003448357239px" fill="#1e1e1e" text-anchor="start" style="white-space: pre;" direction="ltr" dominant-baseline="alphabetic">CHAR *nombre</text></g><g transform="translate(3029.5218648289374 2000.0842844600534) rotate(0 222.35774739583212 51.70273143120369)"><text x="0" y="82.72612649683595" font-family="Helvetica, Segoe UI Emoji" font-size="89.91779379339773px" fill="#1e1e1e" text-anchor="start" style="white-space: pre;" direction="ltr" dominant-baseline="alphabetic">INT  fuerza</text></g><g transform="translate(3020.4974507664374 2158.3815530288493) rotate(0 269.8065490722656 51.7027314312038)"><text x="0" y="82.72612649683595" font-family="Helvetica, Segoe UI Emoji" font-size="89.91779379339773px" fill="#1e1e1e" text-anchor="start" style="white-space: pre;" direction="ltr" dominant-baseline="alphabetic">INT  destreza</text></g><g transform="translate(3023.830784099773 2311.7148863621824) rotate(0 322.3103942871094 51.7027314312038)"><text x="0" y="82.72612649683595" font-family="Helvetica, Segoe UI Emoji" font-size="89.91779379339773px" fill="#1e1e1e" text-anchor="start" style="white-space: pre;" direction="ltr" dominant-baseline="alphabetic">INT  inteligencia</text></g><g stroke-linecap="round"><g transform="translate(2752.8551981622513 1596.75095112672) rotate(0 136.66666666666424 76.66666666666674)"><path d="M-0.06 -1.01 C45.42 24.38, 228.23 126.96, 273.96 152.69 M-1.55 1.07 C43.72 26.59, 227.41 128.29, 273.34 153.89" stroke="#2f9e44" stroke-width="4" fill="none"></path></g><g transform="translate(2752.8551981622513 1596.75095112672) rotate(0 136.66666666666424 76.66666666666674)"><path d="M248.65 149.96 C256.68 152.57, 267 154.7, 273.34 153.89 M248.65 149.96 C256.9 151.76, 264.04 152.22, 273.34 153.89" stroke="#2f9e44" stroke-width="4" fill="none"></path></g><g transform="translate(2752.8551981622513 1596.75095112672) rotate(0 136.66666666666424 76.66666666666674)"><path d="M256.96 135.01 C261.76 143.49, 268.82 151.49, 273.34 153.89 M256.96 135.01 C262.66 141.4, 267.29 146.37, 273.34 153.89" stroke="#2f9e44" stroke-width="4" fill="none"></path></g></g><mask></mask><g stroke-linecap="round" transform="translate(4264.746321906103 847.040911936547) rotate(0 550 304.9999999999999)"><path d="M32 0 C253.91 6.58, 476.27 6.99, 1068 0 C1090.03 3.24, 1103.27 10.39, 1100 32 C1097.43 159.48, 1099.05 285.73, 1100 578 C1096.8 596.92, 1086.92 613.17, 1068 610 C804.43 614.79, 537.84 615.02, 32 610 C7.6 607.9, -0.33 601.99, 0 578 C-3.94 373.88, -2.14 170.58, 0 32 C-0.9 12.55, 10.34 -0.18, 32 0" stroke="none" stroke-width="0" fill="#b2f2bb"></path><path d="M32 0 C370.9 0.72, 710.87 0.64, 1068 0 M32 0 C382.95 -0.37, 733.65 0.13, 1068 0 M1068 0 C1089.13 -1.43, 1100.88 8.78, 1100 32 M1068 0 C1090.21 1.81, 1101.21 11.47, 1100 32 M1100 32 C1102.13 202.81, 1101.4 374.76, 1100 578 M1100 32 C1098.82 157.64, 1098.73 283.41, 1100 578 M1100 578 C1099.68 598.5, 1087.84 611.05, 1068 610 M1100 578 C1102.18 598.99, 1090.2 611.71, 1068 610 M1068 610 C697.02 607.86, 326.34 608.83, 32 610 M1068 610 C701.22 613.25, 334.81 612.75, 32 610 M32 610 C11.82 609.03, 0.06 598.3, 0 578 M32 610 C9.95 611.23, 0.08 601.08, 0 578 M0 578 C0.8 400.28, 1.12 220.79, 0 32 M0 578 C0.86 370.5, 0.63 163.42, 0 32 M0 32 C1.12 10.78, 9.46 -1.67, 32 0 M0 32 C-1.05 11.1, 12.71 -0.56, 32 0" stroke="#2f9e44" stroke-width="4" fill="none"></path></g><g stroke-linecap="round"><g transform="translate(4252.786807224737 995.3783980900375) rotate(0 548.3333333333358 -1.6666666666667425)"><path d="M0.83 -0.3 C183.74 -0.62, 914.62 -2.36, 1097.37 -2.87 M-0.19 -1.5 C182.62 -2.1, 913.94 -4.66, 1096.8 -4.75" stroke="#1e1e1e" stroke-width="4" fill="none"></path></g></g><mask></mask><g stroke-linecap="round"><g transform="translate(4268.735985154184 1151.8970163358106) rotate(0 548.3333333333358 -1.6666666666667425)"><path d="M0.71 0.47 C183.46 -0.04, 914.74 -2.52, 1097.36 -3.34 M-0.38 -0.34 C182.2 -0.61, 914.12 -1.23, 1096.78 -1.8" stroke="#1e1e1e" stroke-width="4" fill="none"></path></g></g><mask></mask><g stroke-linecap="round"><g transform="translate(4268.735985154184 1315.230349669144) rotate(0 548.3333333333358 -1.6666666666667425)"><path d="M0.7 0 C183.32 -0.82, 913.98 -3.96, 1096.45 -4.46 M-0.39 -1.05 C181.99 -1.8, 912.36 -2.83, 1095.39 -3.51" stroke="#1e1e1e" stroke-width="4" fill="none"></path></g></g><mask></mask><g transform="translate(4471.412988572774 769.7943236502267) rotate(0 237.46516927083212 25.98996080982687)"><text x="0" y="41.58482010689177" font-family="Helvetica, Segoe UI Emoji" font-size="45.19993184317713px" fill="#1971c2" text-anchor="start" style="white-space: pre;" direction="ltr" dominant-baseline="alphabetic">pokemon_seleccionado</text></g><g transform="translate(4451.41298857276 894.768538947106) rotate(0 240.70670572916424 40.16951982805409)"><text x="0" y="64.27259617868509" font-family="Helvetica, Segoe UI Emoji" font-size="69.86003448357239px" fill="#1e1e1e" text-anchor="start" style="white-space: pre;" direction="ltr" dominant-baseline="alphabetic">CHAR *nombre</text></g><g transform="translate(4438.079655239431 1023.7075786032142) rotate(0 222.35774739583212 51.70273143120369)"><text x="0" y="82.72612649683595" font-family="Helvetica, Segoe UI Emoji" font-size="89.91779379339773px" fill="#1e1e1e" text-anchor="start" style="white-space: pre;" direction="ltr" dominant-baseline="alphabetic">INT  fuerza</text></g><g transform="translate(4429.055241176931 1182.0048471720102) rotate(0 269.8065490722656 51.70273143120369)"><text x="0" y="82.72612649683595" font-family="Helvetica, Segoe UI Emoji" font-size="89.91779379339773px" fill="#1e1e1e" text-anchor="start" style="white-space: pre;" direction="ltr" dominant-baseline="alphabetic">INT  destreza</text></g><g transform="translate(4429.055241176924 1338.6715138386771) rotate(0 322.3103942871094 51.70273143120369)"><text x="0" y="82.72612649683595" font-family="Helvetica, Segoe UI Emoji" font-size="89.91779379339773px" fill="#1e1e1e" text-anchor="start" style="white-space: pre;" direction="ltr" dominant-baseline="alphabetic">INT  inteligencia</text></g><g stroke-linecap="round"><g transform="translate(4047.2463219060737 830.3742452698809) rotate(0 197.08333333333212 -24.311647071581092)"><path d="M0.63 0.42 C28.27 -7.64, 100.62 -40.4, 166.27 -47.43 C231.93 -54.45, 356.69 -42.5, 394.54 -41.73 M-0.5 -0.41 C26.96 -8.85, 99.67 -42.25, 165.41 -48.92 C231.16 -55.6, 356 -41.55, 393.97 -40.45" stroke="#2f9e44" stroke-width="4" fill="none"></path></g><g transform="translate(4047.2463219060737 830.3742452698809) rotate(0 197.08333333333212 -24.311647071581092)"><path d="M369.96 -33.48 C378.72 -35.69, 388.13 -37.69, 393.97 -40.45 M369.96 -33.48 C377.22 -35.99, 383.67 -37.66, 393.97 -40.45" stroke="#2f9e44" stroke-width="4" fill="none"></path></g><g transform="translate(4047.2463219060737 830.3742452698809) rotate(0 197.08333333333212 -24.311647071581092)"><path d="M371.1 -50.54 C379.61 -46.97, 388.63 -43.21, 393.97 -40.45 M371.1 -50.54 C377.91 -48.04, 384.03 -44.69, 393.97 -40.45" stroke="#2f9e44" stroke-width="4" fill="none"></path></g></g><mask></mask><g stroke-linecap="round"><g transform="translate(3407.7577069340114 1090.0842844600536) rotate(0 -0.7845877191975887 20.000000000000114)"><path d="M0.45 0.46 C0.28 7.18, -1.16 33.75, -1.45 40.36 M0.02 0.23 C-0.18 6.79, -1.57 32.83, -1.82 39.57" stroke="#f08c00" stroke-width="4" fill="none"></path></g><g transform="translate(3407.7577069340114 1090.0842844600536) rotate(0 -0.7845877191975887 20.000000000000114)"><path d="M-7.79 20.47 C-5.61 24.94, -4.47 29.5, -1.82 39.57 M-7.79 20.47 C-5.84 26.34, -4.12 32.53, -1.82 39.57" stroke="#f08c00" stroke-width="4" fill="none"></path></g><g transform="translate(3407.7577069340114 1090.0842844600536) rotate(0 -0.7845877191975887 20.000000000000114)"><path d="M5.88 21.1 C5 25.48, 3.08 29.9, -1.82 39.57 M5.88 21.1 C3.56 26.8, 1 32.8, -1.82 39.57" stroke="#f08c00" stroke-width="4" fill="none"></path></g></g><mask></mask><g stroke-linecap="round" transform="translate(3031.74827074715 1176.6319035076724) rotate(0 450.9463594968074 186.23393385891563)"><path d="M32 0 C328.44 5.87, 623.18 5.62, 869.89 0 C894.1 -2.71, 905.04 13.71, 901.89 32 C900.04 149.42, 901.37 267.47, 901.89 340.47 C904.45 361.15, 891.37 374.4, 869.89 372.47 C685.66 365.88, 503.08 366.36, 32 372.47 C7.28 369.77, -0.23 362.13, 0 340.47 C-1.71 223.64, -2.86 102.69, 0 32 C0.5 12.48, 12.96 -0.31, 32 0" stroke="none" stroke-width="0" fill="#ffec99"></path><path d="M32 0 C283.91 -3.68, 536.7 -2.82, 869.89 0 M32 0 C282.35 -2.63, 533.19 -2.85, 869.89 0 M869.89 0 C889.9 -1.57, 901.46 11.45, 901.89 32 M869.89 0 C890.96 0.93, 902.83 12.23, 901.89 32 M901.89 32 C904.21 112.39, 904.56 191.86, 901.89 340.47 M901.89 32 C901.27 134.69, 900.43 235.69, 901.89 340.47 M901.89 340.47 C903.72 362.8, 891.79 372.16, 869.89 372.47 M901.89 340.47 C903.8 362.52, 893.51 371.56, 869.89 372.47 M869.89 372.47 C637.85 373.25, 405.14 372.56, 32 372.47 M869.89 372.47 C678.55 369.73, 486.9 370.08, 32 372.47 M32 372.47 C12.35 374.23, 1.01 360.88, 0 340.47 M32 372.47 C12.83 374.44, 1.37 362.85, 0 340.47 M0 340.47 C0.02 258.16, 0.44 176.65, 0 32 M0 340.47 C0.84 226.25, 0.54 112.07, 0 32 M0 32 C1.97 11.51, 9.69 1.57, 32 0 M0 32 C1.3 11.8, 8.39 1.58, 32 0" stroke="#1e1e1e" stroke-width="2" fill="none"></path></g><g stroke-linecap="round"><g transform="translate(3031.74827074715 1310.0046771009572) rotate(0 389.9527130364622 -5.692740336298698)"><path d="M-0.66 0.52 C129.23 -1.31, 650.62 -9.56, 780.54 -11.4 M1.19 -0.25 C130.88 -1.85, 649.93 -7.85, 779.92 -9.86" stroke="#1e1e1e" stroke-width="2" fill="none"></path></g></g><mask></mask><g stroke-linecap="round"><g transform="translate(3040.7550869595434 1441.518017047392) rotate(0 389.9527130364622 -5.692740336298698)"><path d="M0.63 -0.01 C130.55 -1.84, 649.1 -8.53, 778.84 -10.48 M-0.49 -1.06 C129.84 -3.27, 650.65 -10.55, 780.99 -12.13" stroke="#1e1e1e" stroke-width="2" fill="none"></path></g></g><mask></mask><g transform="translate(3062.895692872895 1200.6227377820735) rotate(0 419.44068408058956 28.463701681493603)"><text x="0" y="39.89472427678152" font-family="Virgil, Segoe UI Emoji" font-size="45.54192269038985px" fill="#1e1e1e" text-anchor="start" style="white-space: pre;" direction="ltr" dominant-baseline="alphabetic">nodo_inicial - pointer nodo_t = NULL</text></g><g transform="translate(3058.527134627875 1341.314748950599) rotate(0 409.102648172262 28.463701681493717)"><text x="0" y="39.89472427678152" font-family="Virgil, Segoe UI Emoji" font-size="45.54192269038985px" fill="#1e1e1e" text-anchor="start" style="white-space: pre;" direction="ltr" dominant-baseline="alphabetic">nodo_final - pointer nodo_t = NULL</text></g><g transform="translate(3082.4959706086593 1475.0941468536193) rotate(0 334.3001304921927 28.463701681493717)"><text x="0" y="39.89472427678152" font-family="Virgil, Segoe UI Emoji" font-size="45.54192269038985px" fill="#1e1e1e" text-anchor="start" style="white-space: pre;" direction="ltr" dominant-baseline="alphabetic">cant_elementos - size_t = 0</text></g><g stroke-linecap="round" transform="translate(1661.2522351637526 1993.2985701743391) rotate(0 399.81882927843617 165.1190476190476)"><path d="M32 0 C309.71 -0.04, 586.85 1.25, 767.64 0 C789.38 -0.11, 797.41 10.14, 799.64 32 C801.8 126.71, 804.91 226.41, 799.64 298.24 C803.02 320.41, 787.58 331.27, 767.64 330.24 C620.77 333.03, 474.19 333.55, 32 330.24 C11.62 331.69, 2.28 316.66, 0 298.24 C-2.61 242.16, -1.26 191.28, 0 32 C-2.34 10.97, 9.7 -2.62, 32 0" stroke="none" stroke-width="0" fill="#ffec99"></path><path d="M32 0 C299.32 2.43, 567.13 3.43, 767.64 0 M32 0 C283.66 -1.16, 535.61 -1.76, 767.64 0 M767.64 0 C789.74 -0.77, 798.63 9.43, 799.64 32 M767.64 0 C789.29 -1.61, 800.26 9.46, 799.64 32 M799.64 32 C800.26 101.54, 799.98 166.97, 799.64 298.24 M799.64 32 C800.07 109.17, 800 185.06, 799.64 298.24 M799.64 298.24 C799.7 318.58, 790.82 331.85, 767.64 330.24 M799.64 298.24 C798.75 320.57, 790.01 330.33, 767.64 330.24 M767.64 330.24 C499.81 329.06, 232.83 329.29, 32 330.24 M767.64 330.24 C501.57 327.27, 234.81 327.56, 32 330.24 M32 330.24 C9.24 330.53, 1.17 319.08, 0 298.24 M32 330.24 C11.22 332.26, -1.4 320.33, 0 298.24 M0 298.24 C-2.65 242.92, -1.13 186.79, 0 32 M0 298.24 C2.46 227.78, 1.65 158.33, 0 32 M0 32 C-1.15 10.28, 10.04 -2, 32 0 M0 32 C-1.62 10.18, 11.9 -0.55, 32 0" stroke="#1e1e1e" stroke-width="2" fill="none"></path></g><g stroke-linecap="round"><g transform="translate(1661.2522351637526 2111.549765849115) rotate(0 345.74053857350737 -5.047307132459991)"><path d="M-0.37 -0.45 C115.25 -1.95, 577.43 -8.08, 692.62 -9.58 M1.64 -1.73 C117.3 -3.54, 577.6 -9.81, 692.28 -11.44" stroke="#1e1e1e" stroke-width="2" fill="none"></path></g></g><mask></mask><g stroke-linecap="round"><g transform="translate(1669.2378738937841 2228.1523472970594) rotate(0 345.74053857350737 -5.047307132459991)"><path d="M1.14 0.51 C116.34 -1, 575.92 -7.88, 690.82 -9.48 M0.28 -0.27 C115.91 -2.09, 577.74 -9.51, 693.19 -11.28" stroke="#1e1e1e" stroke-width="2" fill="none"></path></g></g><mask></mask><g transform="translate(1688.868215617069 2014.5693645182766) rotate(0 371.8852136825699 25.236535662299843)"><text x="0" y="35.37152838427947" font-family="Virgil, Segoe UI Emoji" font-size="40.37845705967976px" fill="#1e1e1e" text-anchor="start" style="white-space: pre;" direction="ltr" dominant-baseline="alphabetic">nodo_inicial - pointer nodo_t = NULL</text></g><g transform="translate(1684.994957065639 2139.309955077645) rotate(0 362.71928667848624 25.236535662299957)"><text x="0" y="35.37152838427947" font-family="Virgil, Segoe UI Emoji" font-size="40.37845705967976px" fill="#1e1e1e" text-anchor="start" style="white-space: pre;" direction="ltr" dominant-baseline="alphabetic">nodo_final - pointer nodo_t = NULL</text></g><g transform="translate(1709.2016529221146 2257.9216726904538) rotate(0 296.3977510543882 25.236535662299957)"><text x="0" y="35.371528384279465" font-family="Virgil, Segoe UI Emoji" font-size="40.378457059679754px" fill="#1e1e1e" text-anchor="start" style="white-space: pre;" direction="ltr" dominant-baseline="alphabetic">cant_elementos - size_t = 0</text></g><g stroke-linecap="round"><g transform="translate(1949.8060693174994 1832.7824758070246) rotate(0 -1.6666666666642413 55.000000000000114)"><path d="M-0.51 0.03 C-0.94 18.28, -3.3 91.38, -3.58 109.51 M1.42 -1 C0.9 17.42, -4.02 92.37, -4.65 110.79" stroke="#f08c00" stroke-width="4" fill="none"></path></g><g transform="translate(1949.8060693174994 1832.7824758070246) rotate(0 -1.6666666666642413 55.000000000000114)"><path d="M-11.98 86.89 C-10.35 91.64, -9.65 99.05, -4.65 110.79 M-11.98 86.89 C-10.75 91.29, -8.17 96.69, -4.65 110.79" stroke="#f08c00" stroke-width="4" fill="none"></path></g><g transform="translate(1949.8060693174994 1832.7824758070246) rotate(0 -1.6666666666642413 55.000000000000114)"><path d="M5.1 87.77 C3.06 92.26, 0.1 99.49, -4.65 110.79 M5.1 87.77 C2.86 92.02, 1.96 97.24, -4.65 110.79" stroke="#f08c00" stroke-width="4" fill="none"></path></g></g><mask></mask><g transform="translate(3465.021864828959 1085.1218865559092) rotate(0 56.35481770833212 30.681198952072066)"><text x="0" y="49.09096048360582" font-family="Helvetica, Segoe UI Emoji" font-size="53.35860687316884px" fill="#f08c00" text-anchor="start" style="white-space: pre;" direction="ltr" dominant-baseline="alphabetic">pista</text></g><g transform="translate(1985.3337137873095 1914.4030855079811) rotate(0 56.35481770833212 30.681198952072123)"><text x="0" y="49.09096048360582" font-family="Helvetica, Segoe UI Emoji" font-size="53.35860687316884px" fill="#f08c00" text-anchor="start" style="white-space: pre;" direction="ltr" dominant-baseline="alphabetic">pista</text></g><g stroke-linecap="round" transform="translate(2811.855198162266 255.41761779338546) rotate(0 435.25 190)"><path d="M32 0 C213.25 -5.37, 391.61 -2.98, 838.5 0 C863.28 -1.69, 871.1 10.14, 870.5 32 C869.94 139.79, 865.55 243.38, 870.5 348 C867.06 370.15, 857.47 376.77, 838.5 380 C567.83 386.1, 300.95 386.75, 32 380 C7.52 378.76, 0.87 371.32, 0 348 C-3.01 240.91, -1.31 132.14, 0 32 C2.3 13.08, 9.8 -1.58, 32 0" stroke="none" stroke-width="0" fill="#a5d8ff"></path><path d="M32 0 C331.23 -2.5, 628.56 -2.33, 838.5 0 M32 0 C251.72 -0.25, 471.39 -0.77, 838.5 0 M838.5 0 C860.61 1.17, 871.18 9.16, 870.5 32 M838.5 0 C860.52 1.56, 870.07 11.44, 870.5 32 M870.5 32 C871.6 103.03, 871.67 174.89, 870.5 348 M870.5 32 C870.45 124.78, 870.99 219, 870.5 348 M870.5 348 C872.39 368.54, 861.75 378.27, 838.5 380 M870.5 348 C871.89 370.63, 860.31 381.18, 838.5 380 M838.5 380 C593.7 378.72, 347.75 379.04, 32 380 M838.5 380 C598.02 382.33, 357.24 382.16, 32 380 M32 380 C8.71 380.83, -1.32 368.15, 0 348 M32 380 C9.16 380.72, 1.16 370.56, 0 348 M0 348 C0.71 273.15, -0.63 199.21, 0 32 M0 348 C-0.04 270.44, 0.43 194.18, 0 32 M0 32 C1.2 11.46, 12.23 1.14, 32 0 M0 32 C-1.74 9.36, 12.94 1.83, 32 0" stroke="#1971c2" stroke-width="2" fill="none"></path></g><g transform="translate(3024.855198162266 211.41761779338546) rotate(0 193.130859375 20.700000000000003)"><text x="0" y="33.120703125" font-family="Helvetica, Segoe UI Emoji" font-size="36px" fill="#1971c2" text-anchor="start" style="white-space: pre;" direction="ltr" dominant-baseline="alphabetic">pokemones_disponibles</text></g><g stroke-linecap="round"><g transform="translate(3134.855198162266 271.4176177933855) rotate(0 3 178)"><path d="M-0.13 -0.33 C1.08 59.13, 5.82 296.66, 6.89 356.23 M-1.66 -1.55 C-0.49 57.57, 5.18 294.75, 6.41 354.22" stroke="#1e1e1e" stroke-width="2" fill="none"></path></g></g><mask></mask><g stroke-linecap="round"><g transform="translate(2828.855198162266 391.4176177933855) rotate(0 428 -1.9999999999999432)"><path d="M0.89 0.23 C143.62 -0.21, 713.7 -2.16, 856.29 -2.94 M-0.11 -0.7 C142.51 -1.42, 712.82 -4.06, 855.49 -4.51" stroke="#1e1e1e" stroke-width="2" fill="none"></path></g></g><mask></mask><g stroke-linecap="round"><g transform="translate(2820.855198162266 521.4176177933855) rotate(0 424.6666666666679 -0.6666666666666288)"><path d="M0.29 1.06 C141.76 0.72, 708.17 -1.54, 849.76 -1.82 M-1.02 0.57 C140.26 0.37, 707.32 -0.02, 849.03 -0.55" stroke="#1e1e1e" stroke-width="2" fill="none"></path></g></g><mask></mask><g transform="translate(2826.855198162266 437.4176177933855) rotate(0 143.0947265625 20.69999999999999)"><text x="0" y="33.120703125" font-family="Helvetica, Segoe UI Emoji" font-size="36px" fill="#1e1e1e" text-anchor="start" style="white-space: pre;" direction="ltr" dominant-baseline="alphabetic">abb_comparador*</text></g><g transform="translate(2846.855198162266 557.4176177933855) rotate(0 116.0595703125 20.69999999999999)"><text x="0" y="33.120703125" font-family="Helvetica, Segoe UI Emoji" font-size="36px" fill="#1e1e1e" text-anchor="start" style="white-space: pre;" direction="ltr" dominant-baseline="alphabetic">size_t tamanio</text></g><g transform="translate(2856.855198162266 323.4176177933855) rotate(0 107.103515625 20.69999999999999)"><text x="0" y="33.120703125" font-family="Helvetica, Segoe UI Emoji" font-size="36px" fill="#1e1e1e" text-anchor="start" style="white-space: pre;" direction="ltr" dominant-baseline="alphabetic">nodo_abb_t *</text></g><g transform="translate(3218.855198162266 331.4176177933855) rotate(0 79.0576171875 20.69999999999999)"><text x="0" y="33.120703125" font-family="Helvetica, Segoe UI Emoji" font-size="36px" fill="#1e1e1e" text-anchor="start" style="white-space: pre;" direction="ltr" dominant-baseline="alphabetic">nodo_raiz</text></g><g transform="translate(3194.855198162266 443.4176177933855) rotate(0 192.111328125 20.69999999999999)"><text x="0" y="33.120703125" font-family="Helvetica, Segoe UI Emoji" font-size="36px" fill="#1e1e1e" text-anchor="start" style="white-space: pre;" direction="ltr" dominant-baseline="alphabetic">&amp;comparador_pokemon</text></g><g transform="translate(3291.855198162266 557.4176177933855) rotate(0 10.0107421875 20.69999999999999)"><text x="0" y="33.120703125" font-family="Helvetica, Segoe UI Emoji" font-size="36px" fill="#1e1e1e" text-anchor="start" style="white-space: pre;" direction="ltr" dominant-baseline="alphabetic">3</text></g><g stroke-linecap="round"><g transform="translate(2380.855198162266 568.4176177933855) rotate(0 200 -83.75)"><path d="M0.96 0.09 C67.57 -27.61, 333.58 -139.22, 400.16 -167 M0 -0.91 C66.43 -28.89, 332.65 -140.94, 399.29 -168.86" stroke="#1971c2" stroke-width="4" fill="none"></path></g><g transform="translate(2380.855198162266 568.4176177933855) rotate(0 200 -83.75)"><path d="M380.94 -151.88 C387.41 -157.51, 394.29 -162.86, 399.29 -168.86 M380.94 -151.88 C388.8 -157.64, 395.82 -164.61, 399.29 -168.86" stroke="#1971c2" stroke-width="4" fill="none"></path></g><g transform="translate(2380.855198162266 568.4176177933855) rotate(0 200 -83.75)"><path d="M374.32 -167.65 C382.91 -168, 392.03 -168.02, 399.29 -168.86 M374.32 -167.65 C384.57 -167.43, 394.09 -168.47, 399.29 -168.86" stroke="#1971c2" stroke-width="4" fill="none"></path></g></g><mask></mask><g transform="translate(84.10129910547403 970.1509511267194) rotate(0 559.7654339334222 129.40000000000003)"><text x="0" y="51.761098845108684" font-family="Helvetica, Segoe UI Emoji" font-size="56.260869565217384px" fill="#1971c2" text-anchor="start" style="white-space: pre;" direction="ltr" dominant-baseline="alphabetic">int *comparador_pokemon(</text><text x="0" y="116.46109884510867" font-family="Helvetica, Segoe UI Emoji" font-size="56.260869565217384px" fill="#1971c2" text-anchor="start" style="white-space: pre;" direction="ltr" dominant-baseline="alphabetic">                struct pokemon_info *pokemon_1 ,</text><text x="0" y="181.16109884510865" font-family="Helvetica, Segoe UI Emoji" font-size="56.260869565217384px" fill="#1971c2" text-anchor="start" style="white-space: pre;" direction="ltr" dominant-baseline="alphabetic">                struct pokemon_info *pokemon_2</text><text x="0" y="245.86109884510864" font-family="Helvetica, Segoe UI Emoji" font-size="56.260869565217384px" fill="#1971c2" text-anchor="start" style="white-space: pre;" direction="ltr" dominant-baseline="alphabetic">                                            );</text></g></svg>