<svg version="1.1" xmlns="http://www.w3.org/2000/svg" viewBox="0 0 4156.666666666679 2426.666666666666" width="4156.666666666679" height="2426.666666666666" filter="invert(93%) hue-rotate(180deg)">
  <!-- svg-source:excalidraw -->
  
  <defs>
    <style class="style-fonts">
      @font-face {
        font-family: "Virgil";
        src: url("https://excalidraw.com/Virgil.woff2");
      }
      @font-face {
        font-family: "Cascadia";
        src: url("https://excalidraw.com/Cascadia.woff2");
      }
      @font-face {
        font-family: "Assistant";
        src: url("https://excalidraw.com/Assistant-Regular.woff2");
      }
    </style>
    
  </defs>
  <rect x="0" y="0" width="4156.666666666679" height="2426.666666666666" fill="#ffffff"></rect><g stroke-linecap="round" transform="translate(303.33333333334303 176.66666666666697) rotate(0 356.66666666666424 319.9999999999999)"><path d="M446.25 80 C505.5 131.94, 563.69 181.19, 624.08 240 M446.25 80 C506.76 134.83, 567.9 189.28, 624.08 240 M624.08 240 C712.37 321.95, 714.7 321.39, 624.08 400 M624.08 240 C714.8 319.07, 713.43 319.7, 624.08 400 M624.08 400 C560.96 454.94, 499.25 512.25, 446.25 560 M624.08 400 C558.57 457.43, 495.49 514.61, 446.25 560 M446.25 560 C355.81 639.38, 355.06 641.44, 267.75 560 M446.25 560 C356.17 638.33, 354.81 638.71, 267.75 560 M267.75 560 C195.45 496.01, 128.56 435.37, 89.25 400 M267.75 560 C221.75 519.29, 176.19 477.58, 89.25 400 M89.25 400 C-1.94 321.25, -1.21 321.9, 89.25 240 M89.25 400 C-0.4 319.86, 2.09 319.91, 89.25 240 M89.25 240 C142.97 194.08, 197.38 145.85, 267.75 80 M89.25 240 C153.84 182.83, 218.21 126.45, 267.75 80 M267.75 80 C357.68 -0.98, 358.7 1.1, 446.25 80 M267.75 80 C355.31 0.73, 358.34 -0.38, 446.25 80" stroke="#2f9e44" stroke-width="2" fill="none"></path></g><g transform="translate(533.3333333333285 363.3333333333335) rotate(0 124.365234375 41.400000000000006)"><text x="0" y="33.120703125" font-family="Helvetica, Segoe UI Emoji" font-size="36px" fill="#1e1e1e" text-anchor="start" style="white-space: pre;" direction="ltr" dominant-baseline="alphabetic">ETAPA INICIAL</text><text x="0" y="74.520703125" font-family="Helvetica, Segoe UI Emoji" font-size="36px" fill="#1e1e1e" text-anchor="start" style="white-space: pre;" direction="ltr" dominant-baseline="alphabetic"></text></g><g transform="translate(576.666666666657 460.0000000000001) rotate(0 81.90373782835013 111.13333333333338)"><text x="0" y="44.45427706068841" font-family="Helvetica, Segoe UI Emoji" font-size="48.318840579710155px" fill="#1e1e1e" text-anchor="start" style="white-space: pre;" direction="ltr" dominant-baseline="alphabetic">- Jugar </text><text x="0" y="100.02094372735509" font-family="Helvetica, Segoe UI Emoji" font-size="48.318840579710155px" fill="#1e1e1e" text-anchor="start" style="white-space: pre;" direction="ltr" dominant-baseline="alphabetic"></text><text x="0" y="155.58761039402177" font-family="Helvetica, Segoe UI Emoji" font-size="48.318840579710155px" fill="#1e1e1e" text-anchor="start" style="white-space: pre;" direction="ltr" dominant-baseline="alphabetic">- Salir</text><text x="0" y="211.15427706068846" font-family="Helvetica, Segoe UI Emoji" font-size="48.318840579710155px" fill="#1e1e1e" text-anchor="start" style="white-space: pre;" direction="ltr" dominant-baseline="alphabetic"></text></g><g stroke-linecap="round"><g transform="translate(653.3333333333285 640.0000000000001) rotate(0 -201.66666666666788 105)"><path d="M0.49 0.68 C-66.55 35.75, -335.5 175.38, -402.99 210.27 M-0.71 -0.01 C-67.81 34.7, -336.86 173.06, -403.76 208.28" stroke="#1971c2" stroke-width="2" fill="none"></path></g><g transform="translate(653.3333333333285 640.0000000000001) rotate(0 -201.66666666666788 105)"><path d="M-386.86 189.87 C-389.76 194.87, -394.46 196.83, -403.76 208.28 M-386.86 189.87 C-392.05 195.82, -396.92 200.4, -403.76 208.28" stroke="#1971c2" stroke-width="2" fill="none"></path></g><g transform="translate(653.3333333333285 640.0000000000001) rotate(0 -201.66666666666788 105)"><path d="M-378.97 205.04 C-383.72 206.48, -390.3 204.83, -403.76 208.28 M-378.97 205.04 C-386.54 206.36, -393.77 206.38, -403.76 208.28" stroke="#1971c2" stroke-width="2" fill="none"></path></g></g><mask></mask><g transform="translate(10 890.0000000000003) rotate(0 173.0390625 20.69999999999999)"><text x="0" y="33.120703125" font-family="Helvetica, Segoe UI Emoji" font-size="36px" fill="#1e1e1e" text-anchor="start" style="white-space: pre;" direction="ltr" dominant-baseline="alphabetic">FINALIZA EL JUEGO</text></g><g stroke-linecap="round"><g transform="translate(746.6666666666642 483.3333333333336) rotate(0 373.3333333333321 1.6666666666666288)"><path d="M-1.08 0.62 C123.1 1.03, 621.62 2.47, 746.23 3.07 M0.56 -0.09 C124.43 0.44, 620.85 4.06, 745.05 4.46" stroke="#1e1e1e" stroke-width="2" fill="none"></path></g><g transform="translate(746.6666666666642 483.3333333333336) rotate(0 373.3333333333321 1.6666666666666288)"><path d="M721.52 12.89 C731.91 9.01, 739.82 6.24, 745.05 4.46 M721.52 12.89 C729.43 10.04, 738.01 7.33, 745.05 4.46" stroke="#1e1e1e" stroke-width="2" fill="none"></path></g><g transform="translate(746.6666666666642 483.3333333333336) rotate(0 373.3333333333321 1.6666666666666288)"><path d="M721.61 -4.22 C732.05 -1.27, 739.93 2.79, 745.05 4.46 M721.61 -4.22 C729.6 -0.7, 738.15 2.95, 745.05 4.46" stroke="#1e1e1e" stroke-width="2" fill="none"></path></g></g><mask></mask><g stroke-linecap="round" transform="translate(1546.6666666666788 160.00000000000023) rotate(0 356.66666666666424 319.9999999999999)"><path d="M446.25 80 C492.11 121.77, 537.47 160.21, 624.08 240 M446.25 80 C503.73 131.54, 559.7 181.79, 624.08 240 M624.08 240 C711.47 321.55, 712.3 321.9, 624.08 400 M624.08 240 C711.31 319.31, 714 317.92, 624.08 400 M624.08 400 C581.63 438.2, 539.26 477.77, 446.25 560 M624.08 400 C569.61 447.98, 514.75 496.35, 446.25 560 M446.25 560 C355.79 641.42, 356.95 640.99, 267.75 560 M446.25 560 C358.5 639.66, 357.64 640.58, 267.75 560 M267.75 560 C198.03 495.74, 127.72 434.41, 89.25 400 M267.75 560 C213.05 511.67, 156.21 462.31, 89.25 400 M89.25 400 C0.57 321.01, -1.29 321.56, 89.25 240 M89.25 400 C-2.1 318.29, -1.79 321.03, 89.25 240 M89.25 240 C137.91 194.71, 189.17 146.73, 267.75 80 M89.25 240 C133.48 201.69, 178.18 162.01, 267.75 80 M267.75 80 C355.83 -0.05, 357.74 1.99, 446.25 80 M267.75 80 C357.78 0.83, 357.81 -1.74, 446.25 80" stroke="#1e1e1e" stroke-width="2" fill="none"></path></g><g transform="translate(1780.0000000000073 326.66666666666686) rotate(0 112.04231770833576 41.400000000000006)"><text x="0" y="33.120703125" font-family="Helvetica, Segoe UI Emoji" font-size="36px" fill="#1e1e1e" text-anchor="start" style="white-space: pre;" direction="ltr" dominant-baseline="alphabetic">SELECCION </text><text x="0" y="74.520703125" font-family="Helvetica, Segoe UI Emoji" font-size="36px" fill="#1e1e1e" text-anchor="start" style="white-space: pre;" direction="ltr" dominant-baseline="alphabetic">DIFICULTAD</text></g><g transform="translate(1786.6666666666642 470) rotate(0 118.037109375 82.80000000000001)"><text x="0" y="33.120703125" font-family="Helvetica, Segoe UI Emoji" font-size="36px" fill="#1e1e1e" text-anchor="start" style="white-space: pre;" direction="ltr" dominant-baseline="alphabetic">- 1 FACIL</text><text x="0" y="74.520703125" font-family="Helvetica, Segoe UI Emoji" font-size="36px" fill="#1e1e1e" text-anchor="start" style="white-space: pre;" direction="ltr" dominant-baseline="alphabetic">-2 NORMAL</text><text x="0" y="115.92070312499999" font-family="Helvetica, Segoe UI Emoji" font-size="36px" fill="#1e1e1e" text-anchor="start" style="white-space: pre;" direction="ltr" dominant-baseline="alphabetic">-3DIFICIL</text><text x="0" y="157.320703125" font-family="Helvetica, Segoe UI Emoji" font-size="36px" fill="#1e1e1e" text-anchor="start" style="white-space: pre;" direction="ltr" dominant-baseline="alphabetic">-4 IMPOSIBLE</text></g><g stroke-linecap="round"><g transform="translate(2197.4221227581074 481.14776734634967) rotate(0 373.3333333333321 1.6666666666666288)"><path d="M0.78 -0.4 C125.01 0.25, 621.56 2.77, 745.96 3.2 M-0.27 -1.66 C124.3 -0.75, 623.82 3.91, 748.31 4.66" stroke="#1e1e1e" stroke-width="2" fill="none"></path></g><g transform="translate(2197.4221227581074 481.14776734634967) rotate(0 373.3333333333321 1.6666666666666288)"><path d="M724.75 13.03 C732.35 8.78, 741.02 7.88, 748.31 4.66 M724.75 13.03 C729.12 11.08, 733.31 8.88, 748.31 4.66" stroke="#1e1e1e" stroke-width="2" fill="none"></path></g><g transform="translate(2197.4221227581074 481.14776734634967) rotate(0 373.3333333333321 1.6666666666666288)"><path d="M724.88 -4.07 C732.33 -2.35, 740.95 2.71, 748.31 4.66 M724.88 -4.07 C729.37 -2.59, 733.52 -1.36, 748.31 4.66" stroke="#1e1e1e" stroke-width="2" fill="none"></path></g></g><mask></mask><g stroke-linecap="round" transform="translate(2976.6666666666424 126.66666666666742) rotate(0 356.66666666666424 343.3333333333331)"><path d="M446.25 86 C495.15 134.01, 543.89 179.42, 624.08 258 M446.25 86 C509.18 146.52, 572.28 205.73, 624.08 258 M624.08 258 C712.87 343.76, 711.46 343.7, 624.08 430 M624.08 258 C712.81 345.6, 712.28 342.89, 624.08 430 M624.08 430 C582.73 471.77, 539.49 511.88, 446.25 600.67 M624.08 430 C561.75 492.17, 499.08 551.71, 446.25 600.67 M446.25 600.67 C355.62 688.28, 358.23 687.74, 267.75 600.67 M446.25 600.67 C356.22 688.55, 357.85 687.62, 267.75 600.67 M267.75 600.67 C230.3 565.95, 193.36 526.88, 89.25 430 M267.75 600.67 C220.62 555.14, 172.39 509.54, 89.25 430 M89.25 430 C-0.08 343.77, -0.5 342.97, 89.25 258 M89.25 430 C1.23 343.3, 2.06 345.29, 89.25 258 M89.25 258 C160.38 188.14, 232.55 120.72, 267.75 86 M89.25 258 C154.9 194.28, 221.61 130.63, 267.75 86 M267.75 86 C356.55 -0.66, 355.68 1.74, 446.25 86 M267.75 86 C357.47 -2.3, 356.94 -2.25, 446.25 86" stroke="#1e1e1e" stroke-width="2" fill="none"></path></g><g transform="translate(2233.333333333314 353.3333333333337) rotate(0 338.2294921875 41.400000000000006)"><text x="0" y="33.120703125" font-family="Helvetica, Segoe UI Emoji" font-size="36px" fill="#1e1e1e" text-anchor="start" style="white-space: pre;" direction="ltr" dominant-baseline="alphabetic">asignacion de pista rival y pokemon rival,</text><text x="0" y="74.520703125" font-family="Helvetica, Segoe UI Emoji" font-size="36px" fill="#1e1e1e" text-anchor="start" style="white-space: pre;" direction="ltr" dominant-baseline="alphabetic">cantidad de osbtaculos e intentos posibles</text></g><g transform="translate(3176.291015624971 305.2666666666672) rotate(0 183.708984375 41.39999999999999)"><text x="0" y="33.120703125" font-family="Helvetica, Segoe UI Emoji" font-size="36px" fill="#1e1e1e" text-anchor="start" style="white-space: pre;" direction="ltr" dominant-baseline="alphabetic">ETAPA SELECCION </text><text x="0" y="74.520703125" font-family="Helvetica, Segoe UI Emoji" font-size="36px" fill="#1e1e1e" text-anchor="start" style="white-space: pre;" direction="ltr" dominant-baseline="alphabetic">POKEMON</text></g><g transform="translate(3090.999999999978 410.0000000000002) rotate(0 230.115234375 41.400000000000006)"><text x="0" y="33.120703125" font-family="Helvetica, Segoe UI Emoji" font-size="36px" fill="#1e1e1e" text-anchor="start" style="white-space: pre;" direction="ltr" dominant-baseline="alphabetic">se muestran los pokemones,</text><text x="0" y="74.520703125" font-family="Helvetica, Segoe UI Emoji" font-size="36px" fill="#1e1e1e" text-anchor="start" style="white-space: pre;" direction="ltr" dominant-baseline="alphabetic">se da a elegir un pokemon</text></g><g transform="translate(3293.333333333314 523.3333333333335) rotate(0 75.0146484375 20.69999999999999)"><text x="0" y="33.120703125" font-family="Helvetica, Segoe UI Emoji" font-size="36px" fill="#1e1e1e" text-anchor="start" style="white-space: pre;" direction="ltr" dominant-baseline="alphabetic">ERROR?</text></g><g stroke-linecap="round"><g transform="translate(3449.999999999978 550.3831158563228) rotate(0 230 -73.52489126149453)"><path d="M-1.03 -1.16 C75.36 -10.46, 442.75 -32.49, 459.48 -56.93 C476.21 -81.38, 159.25 -132.63, 99.34 -147.83 M0.63 0.85 C76.72 -8.14, 442 -30.71, 458.26 -55.34 C474.53 -79.97, 157.9 -131.55, 98.23 -146.93" stroke="#f08c00" stroke-width="2" fill="none"></path></g><g transform="translate(3449.999999999978 550.3831158563228) rotate(0 230 -73.52489126149453)"><path d="M122.96 -150.6 C111.29 -150.23, 103.7 -149.02, 98.23 -146.93 M122.96 -150.6 C116.25 -149.77, 111.09 -149.58, 98.23 -146.93" stroke="#f08c00" stroke-width="2" fill="none"></path></g><g transform="translate(3449.999999999978 550.3831158563228) rotate(0 230 -73.52489126149453)"><path d="M119.54 -133.85 C109.36 -140.03, 103.12 -145.4, 98.23 -146.93 M119.54 -133.85 C113.62 -136.91, 109.27 -140.65, 98.23 -146.93" stroke="#f08c00" stroke-width="2" fill="none"></path></g></g><mask></mask><g stroke-linecap="round"><g transform="translate(3333.333333333314 813.3333333333337) rotate(0 0 140)"><path d="M-1.12 0.51 C-0.99 46.83, 0.82 232.28, 1.15 279.06 M0.5 -0.27 C0.53 46.69, 0.8 233.48, 0.81 280.1" stroke="#1e1e1e" stroke-width="2" fill="none"></path></g><g transform="translate(3333.333333333314 813.3333333333337) rotate(0 0 140)"><path d="M-7.76 256.62 C-3.86 266.43, -3.42 273.73, 0.81 280.1 M-7.76 256.62 C-4.83 265.18, -0.12 275.51, 0.81 280.1" stroke="#1e1e1e" stroke-width="2" fill="none"></path></g><g transform="translate(3333.333333333314 813.3333333333337) rotate(0 0 140)"><path d="M9.34 256.6 C7.56 266.26, 2.31 273.57, 0.81 280.1 M9.34 256.6 C5.46 265.13, 3.36 275.46, 0.81 280.1" stroke="#1e1e1e" stroke-width="2" fill="none"></path></g></g><mask></mask><g stroke-linecap="round" transform="translate(2969.9999999999854 1090.0000000000007) rotate(0 356.66666666666424 343.33333333333314)"><path d="M446.25 86 C499.96 140.29, 555.74 192.13, 624.08 258 M446.25 86 C515.01 153.23, 584.95 220.93, 624.08 258 M624.08 258 C711.92 344.16, 713.11 344.27, 624.08 430 M624.08 258 C711.19 343.65, 714.23 343.53, 624.08 430 M624.08 430 C569.89 480.3, 516.1 530.65, 446.25 600.67 M624.08 430 C575.49 477.18, 527.43 523.13, 446.25 600.67 M446.25 600.67 C356 686.82, 356.39 685.58, 267.75 600.67 M446.25 600.67 C358 685.88, 355.39 684.77, 267.75 600.67 M267.75 600.67 C219.63 556.6, 174.5 512.46, 89.25 430 M267.75 600.67 C198.26 532.58, 128.34 465.24, 89.25 430 M89.25 430 C1.71 345.47, -1.32 343.42, 89.25 258 M89.25 430 C1.16 343.56, 0.76 341.84, 89.25 258 M89.25 258 C136.7 214.03, 183.4 167.97, 267.75 86 M89.25 258 C133.85 216.92, 177.51 173.39, 267.75 86 M267.75 86 C357.98 -0.66, 358.02 0.76, 446.25 86 M267.75 86 C356.18 -1.06, 358.52 0.73, 446.25 86" stroke="#1e1e1e" stroke-width="2" fill="none"></path></g><g transform="translate(3159.999999999978 1306.666666666667) rotate(0 180.03515625 20.700000000000045)"><text x="0" y="33.120703125" font-family="Helvetica, Segoe UI Emoji" font-size="36px" fill="#1e1e1e" text-anchor="start" style="white-space: pre;" direction="ltr" dominant-baseline="alphabetic">ETAPA CREAR PISTA</text></g><g transform="translate(3276.6666666666424 623.3333333333335) rotate(0 116.4986035628026 73.0666666666666)"><text x="0" y="58.45457427536228" font-family="Helvetica, Segoe UI Emoji" font-size="63.53623188405793px" fill="#1e1e1e" text-anchor="start" style="white-space: pre;" direction="ltr" dominant-baseline="alphabetic">Salir</text><text x="0" y="131.5212409420289" font-family="Helvetica, Segoe UI Emoji" font-size="63.53623188405793px" fill="#1e1e1e" text-anchor="start" style="white-space: pre;" direction="ltr" dominant-baseline="alphabetic"></text></g><g stroke-linecap="round"><g transform="translate(3271.4201513560765 684.3034543257813) rotate(0 -201.66666666666788 105)"><path d="M1.14 -0.5 C-66.01 34.64, -335.43 175.63, -403.04 210.65 M0.28 -1.81 C-66.99 33, -336.75 173.44, -403.83 208.87" stroke="#1971c2" stroke-width="2" fill="none"></path></g><g transform="translate(3271.4201513560765 684.3034543257813) rotate(0 -201.66666666666788 105)"><path d="M-386.99 190.39 C-392.72 196.39, -395.67 199.33, -403.83 208.87 M-386.99 190.39 C-391.18 195.86, -396.62 200.35, -403.83 208.87" stroke="#1971c2" stroke-width="2" fill="none"></path></g><g transform="translate(3271.4201513560765 684.3034543257813) rotate(0 -201.66666666666788 105)"><path d="M-379.05 205.54 C-387.05 207.23, -392.29 205.8, -403.83 208.87 M-379.05 205.54 C-385.36 206.92, -392.94 207.32, -403.83 208.87" stroke="#1971c2" stroke-width="2" fill="none"></path></g></g><mask></mask><g stroke-linecap="round"><g transform="translate(2946.6666666666424 1440) rotate(0 -358.3333333333321 0)"><path d="M0.04 0.12 C-119.53 0, -598.47 -0.61, -717.82 -0.71 M-1.4 -0.86 C-120.58 -0.84, -596.53 0.21, -715.71 0.45" stroke="#1e1e1e" stroke-width="2" fill="none"></path></g><g transform="translate(2946.6666666666424 1440) rotate(0 -358.3333333333321 0)"><path d="M-692.24 -8.15 C-698.25 -7.78, -705.86 -2.55, -715.71 0.45 M-692.24 -8.15 C-698.32 -6.06, -705.25 -4.23, -715.71 0.45" stroke="#1e1e1e" stroke-width="2" fill="none"></path></g><g transform="translate(2946.6666666666424 1440) rotate(0 -358.3333333333321 0)"><path d="M-692.2 8.95 C-698.23 4.79, -705.84 5.5, -715.71 0.45 M-692.2 8.95 C-698.45 6.59, -705.39 3.99, -715.71 0.45" stroke="#1e1e1e" stroke-width="2" fill="none"></path></g></g><mask></mask><g stroke-linecap="round" transform="translate(1486.6666666666424 1123.3333333333335) rotate(0 356.66666666666424 319.99999999999994)"><path d="M446.25 80 C513.5 141.63, 585.87 203.28, 624.08 240 M446.25 80 C493.29 122.63, 540.3 164.41, 624.08 240 M624.08 240 C714.35 319.42, 713.89 318.27, 624.08 400 M624.08 240 C715.05 318.93, 713.8 317.84, 624.08 400 M624.08 400 C572.03 445.3, 523.17 491.63, 446.25 560 M624.08 400 C561.03 457.62, 497.75 513.24, 446.25 560 M446.25 560 C355.51 638.51, 357.62 638.42, 267.75 560 M446.25 560 C358.78 639.99, 354.88 638.97, 267.75 560 M267.75 560 C219.26 518.75, 170.04 472.03, 89.25 400 M267.75 560 C214.63 514.59, 161.97 467.01, 89.25 400 M89.25 400 C-1.26 320.24, -1.02 319.21, 89.25 240 M89.25 400 C-1.7 318.94, -0.77 318.33, 89.25 240 M89.25 240 C156.06 179.69, 225.91 116.66, 267.75 80 M89.25 240 C133.96 200.7, 177.47 160.41, 267.75 80 M267.75 80 C356.04 0.64, 357.29 -1.83, 446.25 80 M267.75 80 C357.85 -1.01, 357.12 0.29, 446.25 80" stroke="#1e1e1e" stroke-width="2" fill="none"></path></g><g transform="translate(1679.6243489583067 1385.2666666666669) rotate(0 183.708984375 41.39999999999998)"><text x="0" y="33.120703125" font-family="Helvetica, Segoe UI Emoji" font-size="36px" fill="#1e1e1e" text-anchor="start" style="white-space: pre;" direction="ltr" dominant-baseline="alphabetic">ETAPA CORRER </text><text x="0" y="74.520703125" font-family="Helvetica, Segoe UI Emoji" font-size="36px" fill="#1e1e1e" text-anchor="start" style="white-space: pre;" direction="ltr" dominant-baseline="alphabetic">PISTA</text></g><g stroke-linecap="round"><g transform="translate(1483.333333333314 1436.666666666667) rotate(0 -351.6666666666679 0)"><path d="M0.79 0.09 C-116.42 0.36, -586.67 1.24, -703.85 1.12 M-0.25 -0.91 C-117.61 -0.91, -588.03 -0.62, -705.07 -0.41" stroke="#1e1e1e" stroke-width="2" fill="none"></path></g><g transform="translate(1483.333333333314 1436.666666666667) rotate(0 -351.6666666666679 0)"><path d="M-681.59 -8.99 C-687.34 -7.55, -691.47 -2.83, -705.07 -0.41 M-681.59 -8.99 C-687.21 -5.87, -692.36 -4.6, -705.07 -0.41" stroke="#1e1e1e" stroke-width="2" fill="none"></path></g><g transform="translate(1483.333333333314 1436.666666666667) rotate(0 -351.6666666666679 0)"><path d="M-681.57 8.12 C-687.25 5.28, -691.39 5.74, -705.07 -0.41 M-681.57 8.12 C-687.05 6.98, -692.2 4, -705.07 -0.41" stroke="#1e1e1e" stroke-width="2" fill="none"></path></g></g><mask></mask><g stroke-linecap="round" transform="translate(236.6666666666424 1206.6666666666665) rotate(0 206.66666666666788 203.3333333333332)"><path d="M258.75 51 C284.73 79.34, 314.39 105.18, 361.58 153 M258.75 51 C289.37 81.06, 319.69 112.36, 361.58 153 M361.58 153 C412.6 202.88, 413.22 202.62, 361.58 255 M361.58 153 C413.14 206.19, 414.56 203.34, 361.58 255 M361.58 255 C321.61 292.65, 285 330.97, 258.75 355.67 M361.58 255 C330.89 285.91, 300.69 314.46, 258.75 355.67 M258.75 355.67 C207.78 408.65, 208.15 405.16, 155.25 355.67 M258.75 355.67 C205.6 405.12, 206.98 405.49, 155.25 355.67 M155.25 355.67 C120.07 322.87, 85.2 288.31, 51.75 255 M155.25 355.67 C119.7 321.3, 84.96 288.31, 51.75 255 M51.75 255 C0.79 204.16, 0.66 205.21, 51.75 153 M51.75 255 C-0.57 205.89, -0.92 204.57, 51.75 153 M51.75 153 C87.58 118.84, 123.58 80.53, 155.25 51 M51.75 153 C88.37 118.24, 123.43 83.16, 155.25 51 M155.25 51 C207.26 0.8, 206.62 -0.95, 258.75 51 M155.25 51 C206.08 0.28, 206.64 -1.46, 258.75 51" stroke="#1971c2" stroke-width="2" fill="none"></path></g><g transform="translate(391.4775390624782 1389.1333333333332) rotate(0 52.0224609375 20.700000000000045)"><text x="52.0224609375" y="33.120703125" font-family="Helvetica, Segoe UI Emoji" font-size="36px" fill="#1971c2" text-anchor="middle" style="white-space: pre;" direction="ltr" dominant-baseline="alphabetic">SALIR</text></g><g stroke-linecap="round"><g transform="translate(1459.9999999999782 1483.3333333333335) rotate(0 -156.66666666666788 165)"><path d="M-0.04 1.09 C-29.31 23.23, -123.99 78.8, -176.07 133.8 C-228.16 188.79, -289.77 298.5, -312.54 331.06 M-1.52 0.61 C-30.85 22.3, -124.82 77.14, -176.71 131.92 C-228.6 186.69, -290.32 296.3, -312.88 329.27" stroke="#f08c00" stroke-width="2" fill="none"></path></g><g transform="translate(1459.9999999999782 1483.3333333333335) rotate(0 -156.66666666666788 165)"><path d="M-307.57 304.84 C-306.94 312.14, -309.35 318.8, -312.88 329.27 M-307.57 304.84 C-309.33 314.54, -310.67 322.83, -312.88 329.27" stroke="#f08c00" stroke-width="2" fill="none"></path></g><g transform="translate(1459.9999999999782 1483.3333333333335) rotate(0 -156.66666666666788 165)"><path d="M-293.11 313.97 C-296.29 318.91, -302.44 323.2, -312.88 329.27 M-293.11 313.97 C-300.53 320.02, -307.48 324.77, -312.88 329.27" stroke="#f08c00" stroke-width="2" fill="none"></path></g></g><mask></mask><g stroke-linecap="round" transform="translate(659.9999999999709 1760) rotate(0 356.66666666666424 320)"><path d="M446.25 80 C504.67 131.83, 562.43 184.51, 624.08 240 M446.25 80 C489.97 121.37, 535.12 161.57, 624.08 240 M624.08 240 C713.06 320.48, 715.31 320.38, 624.08 400 M624.08 240 C711.4 318.12, 713.97 321.63, 624.08 400 M624.08 400 C588.2 434.99, 551.36 465.99, 446.25 560 M624.08 400 C558.45 457.27, 493.11 516.1, 446.25 560 M446.25 560 C358.47 641.68, 355.83 638.27, 267.75 560 M446.25 560 C357.56 640.18, 359.11 641.02, 267.75 560 M267.75 560 C197.13 499.1, 129.67 435.7, 89.25 400 M267.75 560 C224.67 519.91, 178.74 479.26, 89.25 400 M89.25 400 C1.87 319.4, -0.17 319.82, 89.25 240 M89.25 400 C-0.19 320.7, 0.1 318.41, 89.25 240 M89.25 240 C141.29 192.7, 194.83 143.31, 267.75 80 M89.25 240 C128.44 204.7, 167.57 168.6, 267.75 80 M267.75 80 C356.46 -0.18, 358.03 -1.16, 446.25 80 M267.75 80 C358.91 1.6, 358.86 0.45, 446.25 80" stroke="#f08c00" stroke-width="2" fill="none"></path></g><g transform="translate(898.1634114583067 2038.6) rotate(0 118.669921875 41.39999999999998)"><text x="118.669921875" y="33.120703125" font-family="Helvetica, Segoe UI Emoji" font-size="36px" fill="#f08c00" text-anchor="middle" style="white-space: pre;" direction="ltr" dominant-baseline="alphabetic">REINTENTAR </text><text x="118.669921875" y="74.520703125" font-family="Helvetica, Segoe UI Emoji" font-size="36px" fill="#f08c00" text-anchor="middle" style="white-space: pre;" direction="ltr" dominant-baseline="alphabetic">CARRERA</text></g><g stroke-linecap="round"><g transform="translate(1369.9999999999782 2103.333333333333) rotate(0 398.33333333333576 -5)"><path d="M-0.9 0.41 C132.08 -0.9, 665 -7.3, 797.84 -9.06 M0.82 -0.41 C133.75 -1.95, 665.13 -9.28, 797.51 -10.68" stroke="#f08c00" stroke-width="2" fill="none"></path></g><g transform="translate(1369.9999999999782 2103.333333333333) rotate(0 398.33333333333576 -5)"><path d="M774.12 -1.84 C781.82 -2.32, 789.62 -7.78, 797.51 -10.68 M774.12 -1.84 C780.09 -4.27, 786.89 -6.89, 797.51 -10.68" stroke="#f08c00" stroke-width="2" fill="none"></path></g><g transform="translate(1369.9999999999782 2103.333333333333) rotate(0 398.33333333333576 -5)"><path d="M773.91 -18.94 C781.5 -14.36, 789.36 -14.76, 797.51 -10.68 M773.91 -18.94 C779.96 -16.39, 786.83 -14.04, 797.51 -10.68" stroke="#f08c00" stroke-width="2" fill="none"></path></g></g><mask></mask><g stroke-linecap="round" transform="translate(2213.3333333332994 1776.6666666666663) rotate(0 356.66666666666424 319.9999999999999)"><path d="M446.25 80 C507.64 134.06, 566.49 187.77, 624.08 240 M446.25 80 C510.71 139.58, 573.49 196.71, 624.08 240 M624.08 240 C714.66 320.97, 713.98 321.16, 624.08 400 M624.08 240 C714.13 319.5, 714.37 318.27, 624.08 400 M624.08 400 C581.47 438.44, 537.28 480.9, 446.25 560 M624.08 400 C576.57 439.29, 531.66 482.04, 446.25 560 M446.25 560 C356.19 638.19, 357.68 639.54, 267.75 560 M446.25 560 C358.84 639.02, 357.51 640.19, 267.75 560 M267.75 560 C212.64 510.27, 156.6 462.18, 89.25 400 M267.75 560 C219.92 515.26, 170.39 470.06, 89.25 400 M89.25 400 C0.05 319.87, 0.68 320.82, 89.25 240 M89.25 400 C0.92 321.56, -1.5 320.8, 89.25 240 M89.25 240 C136.53 195.21, 186.62 154.61, 267.75 80 M89.25 240 C159.84 176.27, 231.55 112, 267.75 80 M267.75 80 C357.69 -0.82, 358.56 -1.07, 446.25 80 M267.75 80 C356.5 0.72, 358.8 -1.4, 446.25 80" stroke="#f08c00" stroke-width="2" fill="none"></path></g><g transform="translate(2413.492838541635 2075.9666666666662) rotate(0 156.673828125 20.700000000000045)"><text x="156.673828125" y="33.120703125" font-family="Helvetica, Segoe UI Emoji" font-size="36px" fill="#f08c00" text-anchor="middle" style="white-space: pre;" direction="ltr" dominant-baseline="alphabetic">MODIFICAR PISTA</text></g><g stroke-linecap="round"><g transform="translate(2489.999999999978 1929.9999999999995) rotate(0 -135 -221.6666666666664)"><path d="M0.13 0.44 C-17.33 -41.83, -58.96 -178.53, -103.95 -252.46 C-148.95 -326.39, -242.24 -411.26, -269.85 -443.15 M-1.26 -0.37 C-18.39 -42.47, -56.69 -180.56, -101.57 -254.12 C-146.44 -327.68, -242.61 -410.26, -270.53 -441.74" stroke="#f08c00" stroke-width="2" fill="none"></path></g><g transform="translate(2489.999999999978 1929.9999999999995) rotate(0 -135 -221.6666666666664)"><path d="M-247.9 -431.12 C-255.51 -436, -263.04 -438.58, -270.53 -441.74 M-247.9 -431.12 C-254.29 -435.09, -262.43 -437.59, -270.53 -441.74" stroke="#f08c00" stroke-width="2" fill="none"></path></g><g transform="translate(2489.999999999978 1929.9999999999995) rotate(0 -135 -221.6666666666664)"><path d="M-260.02 -419.06 C-263.33 -428.34, -266.45 -435.31, -270.53 -441.74 M-260.02 -419.06 C-262.63 -426.78, -266.95 -433.09, -270.53 -441.74" stroke="#f08c00" stroke-width="2" fill="none"></path></g></g><mask></mask><g transform="translate(3256.666666666679 1466.6666666666665) rotate(0 72.43983525815202 35.700000000000045)"><text x="0" y="57.121212635869725" font-family="Helvetica, Segoe UI Emoji" font-size="62.08695652173931px" fill="#1e1e1e" text-anchor="start" style="white-space: pre;" direction="ltr" dominant-baseline="alphabetic">-Salir</text></g><g stroke-linecap="round" transform="translate(2463.333333333343 776.6666666666669) rotate(0 206.66666666666788 203.3333333333332)"><path d="M258.75 51 C286.4 77.81, 315.1 105.94, 361.58 153 M258.75 51 C289.15 82.82, 320.56 113.27, 361.58 153 M361.58 153 C412 205.37, 414.43 202.5, 361.58 255 M361.58 153 C414.14 206.22, 415.63 204.36, 361.58 255 M361.58 255 C329.63 288.52, 295.51 320.23, 258.75 355.67 M361.58 255 C322.5 293.67, 281.3 334.34, 258.75 355.67 M258.75 355.67 C208.92 408.6, 205.76 406.04, 155.25 355.67 M258.75 355.67 C206.5 406.53, 204.89 407.73, 155.25 355.67 M155.25 355.67 C119.1 321.62, 80.06 282.92, 51.75 255 M155.25 355.67 C127.63 327.31, 98.28 298.84, 51.75 255 M51.75 255 C0.36 203.63, -0.36 205.38, 51.75 153 M51.75 255 C0.5 203.5, 1.35 205.4, 51.75 153 M51.75 153 C76.72 127.63, 100.08 104.15, 155.25 51 M51.75 153 C90.7 115.47, 129.48 76.02, 155.25 51 M155.25 51 C206.02 -0.74, 205.02 1.18, 258.75 51 M155.25 51 C205.42 2.03, 205.92 -1.91, 258.75 51" stroke="#1971c2" stroke-width="2" fill="none"></path></g><g transform="translate(2618.144205729179 959.1333333333334) rotate(0 52.0224609375 20.69999999999999)"><text x="52.0224609375" y="33.120703125" font-family="Helvetica, Segoe UI Emoji" font-size="36px" fill="#1971c2" text-anchor="middle" style="white-space: pre;" direction="ltr" dominant-baseline="alphabetic">SALIR</text></g><g stroke-linecap="round" transform="translate(3733.333333333343 1373.3333333333335) rotate(0 206.66666666666788 203.33333333333326)"><path d="M258.75 51 C281.95 74.94, 309.38 100.05, 361.58 153 M258.75 51 C291.32 82.5, 324.44 114.22, 361.58 153 M361.58 153 C413.65 205.8, 414.55 204.58, 361.58 255 M361.58 153 C414.29 201.95, 411.8 205.16, 361.58 255 M361.58 255 C321.21 293.79, 280.99 332.26, 258.75 355.67 M361.58 255 C327.01 291.45, 291.6 325.2, 258.75 355.67 M258.75 355.67 C205.46 406.32, 205.25 406.46, 155.25 355.67 M258.75 355.67 C208.78 407.18, 208.62 407.2, 155.25 355.67 M155.25 355.67 C123.91 323.91, 89.19 292.63, 51.75 255 M155.25 355.67 C119.37 320.64, 80.94 283.83, 51.75 255 M51.75 255 C-0.07 205.51, -1.69 202.96, 51.75 153 M51.75 255 C-1.73 204.5, -1.88 201.8, 51.75 153 M51.75 153 C79.31 127.02, 105.89 101.84, 155.25 51 M51.75 153 C72.62 130.87, 95.9 108.69, 155.25 51 M155.25 51 C208.34 0.47, 208.5 0.82, 258.75 51 M155.25 51 C205.9 -1.39, 206.9 0.7, 258.75 51" stroke="#1971c2" stroke-width="2" fill="none"></path></g><g transform="translate(3888.144205729179 1555.8) rotate(0 52.0224609375 20.700000000000045)"><text x="52.0224609375" y="33.120703125" font-family="Helvetica, Segoe UI Emoji" font-size="36px" fill="#1971c2" text-anchor="middle" style="white-space: pre;" direction="ltr" dominant-baseline="alphabetic">SALIR</text></g><g stroke-linecap="round"><g transform="translate(3430.0000000000146 1509.9999999999998) rotate(0 151.66666666666424 13.333333333333371)"><path d="M0.24 0.67 C50.57 5.17, 252.33 22.4, 303.02 26.86 M-1.1 -0.02 C48.96 4.1, 251.03 20.59, 301.91 24.84" stroke="#1971c2" stroke-width="2" fill="none"></path></g><g transform="translate(3430.0000000000146 1509.9999999999998) rotate(0 151.66666666666424 13.333333333333371)"><path d="M277.8 31.43 C288.23 28.32, 296.74 28.09, 301.91 24.84 M277.8 31.43 C285.58 28.28, 295.68 27.53, 301.91 24.84" stroke="#1971c2" stroke-width="2" fill="none"></path></g><g transform="translate(3430.0000000000146 1509.9999999999998) rotate(0 151.66666666666424 13.333333333333371)"><path d="M279.2 14.39 C289.07 17.86, 297.04 24.21, 301.91 24.84 M279.2 14.39 C286.53 17.39, 296.12 22.79, 301.91 24.84" stroke="#1971c2" stroke-width="2" fill="none"></path></g></g><mask></mask><g transform="translate(3167.426687047111 1376.6666666666667) rotate(0 201.390380859375 33.066666666666606)"><text x="0" y="26.453894927536204" font-family="Helvetica, Segoe UI Emoji" font-size="28.75362318840577px" fill="#1e1e1e" text-anchor="start" style="white-space: pre;" direction="ltr" dominant-baseline="alphabetic">se dan opciones de obstaculos </text><text x="0" y="59.52056159420284" font-family="Helvetica, Segoe UI Emoji" font-size="28.75362318840577px" fill="#1e1e1e" text-anchor="start" style="white-space: pre;" direction="ltr" dominant-baseline="alphabetic">para la pista </text></g><g transform="translate(2356.666666666686 2146.666666666666) rotate(0 232.171875 41.39999999999998)"><text x="0" y="33.120703125" font-family="Helvetica, Segoe UI Emoji" font-size="36px" fill="#f08c00" text-anchor="start" style="white-space: pre;" direction="ltr" dominant-baseline="alphabetic">Se añade o quita obstaculos </text><text x="0" y="74.520703125" font-family="Helvetica, Segoe UI Emoji" font-size="36px" fill="#f08c00" text-anchor="start" style="white-space: pre;" direction="ltr" dominant-baseline="alphabetic">de la pista</text></g><g transform="translate(2443.333333333343 1980) rotate(0 175.060546875 20.700000000000045)"><text x="0" y="33.120703125" font-family="Helvetica, Segoe UI Emoji" font-size="36px" fill="#f08c00" text-anchor="start" style="white-space: pre;" direction="ltr" dominant-baseline="alphabetic">Terminar modificacion</text></g><g stroke-linecap="round"><g transform="translate(1478.8068936750715 1359.8898549444373) rotate(0 -351.6666666666679 0)"><path d="M-1.06 0.67 C-118.16 0.98, -585.75 0.84, -702.98 0.66 M0.59 -0.02 C-116.62 0.04, -586.62 -1.23, -703.74 -1.11" stroke="#1971c2" stroke-width="2" fill="none"></path></g><g transform="translate(1478.8068936750715 1359.8898549444373) rotate(0 -351.6666666666679 0)"><path d="M-680.24 -9.64 C-685.59 -6.94, -691.99 -7.1, -703.74 -1.11 M-680.24 -9.64 C-686.54 -6.89, -691.97 -4.82, -703.74 -1.11" stroke="#1971c2" stroke-width="2" fill="none"></path></g><g transform="translate(1478.8068936750715 1359.8898549444373) rotate(0 -351.6666666666679 0)"><path d="M-680.26 7.46 C-685.44 5.51, -691.83 0.71, -703.74 -1.11 M-680.26 7.46 C-686.72 5.66, -692.14 3.18, -703.74 -1.11" stroke="#1971c2" stroke-width="2" fill="none"></path></g></g><mask></mask><g stroke-linecap="round"><g transform="translate(1006.6666666666788 76.66666666666663) rotate(0 85 0)"><path d="M-1.16 -0.5 C27.14 -0.2, 140.75 0.97, 169.4 1.16 M0.43 -1.8 C29.17 -1.75, 143.48 -0.42, 171.8 -0.35" stroke="#1e1e1e" stroke-width="4" fill="none"></path></g><g transform="translate(1006.6666666666788 76.66666666666663) rotate(0 85 0)"><path d="M148.24 8.02 C153.72 5.03, 162.74 5.06, 171.8 -0.35 M148.24 8.02 C156.94 5.32, 164.14 1.28, 171.8 -0.35" stroke="#1e1e1e" stroke-width="4" fill="none"></path></g><g transform="translate(1006.6666666666788 76.66666666666663) rotate(0 85 0)"><path d="M148.37 -9.08 C153.72 -7.53, 162.71 -2.96, 171.8 -0.35 M148.37 -9.08 C156.98 -5.76, 164.13 -3.78, 171.8 -0.35" stroke="#1e1e1e" stroke-width="4" fill="none"></path></g></g><mask></mask><g transform="translate(1293.333333333343 63.333333333333314) rotate(0 139.0166015625 20.700000000000003)"><text x="0" y="33.120703125" font-family="Helvetica, Segoe UI Emoji" font-size="36px" fill="#1e1e1e" text-anchor="start" style="white-space: pre;" direction="ltr" dominant-baseline="alphabetic">FLUJO NORMAL</text></g><g stroke-linecap="round"><g transform="translate(1008.2305429967964 145.9666666666667) rotate(0 85 0)"><path d="M1.12 0.68 C29.26 0.81, 141.82 0.72, 169.87 0.6 M0.25 -0.01 C28.13 -0.22, 140.83 -1.42, 168.86 -1.2" stroke="#f08c00" stroke-width="4" fill="none"></path></g><g transform="translate(1008.2305429967964 145.9666666666667) rotate(0 85 0)"><path d="M145.39 7.42 C155.6 3.66, 164.54 -0.36, 168.86 -1.2 M145.39 7.42 C152.83 4.43, 159.1 1.41, 168.86 -1.2" stroke="#f08c00" stroke-width="4" fill="none"></path></g><g transform="translate(1008.2305429967964 145.9666666666667) rotate(0 85 0)"><path d="M145.34 -9.69 C155.55 -6.84, 164.5 -4.25, 168.86 -1.2 M145.34 -9.69 C152.84 -7.55, 159.13 -5.45, 168.86 -1.2" stroke="#f08c00" stroke-width="4" fill="none"></path></g></g><mask></mask><g transform="translate(1294.8972096634534 132.63333333333338) rotate(0 184.359375 20.7)"><text x="0" y="33.120703125" font-family="Helvetica, Segoe UI Emoji" font-size="36px" fill="#f08c00" text-anchor="start" style="white-space: pre;" direction="ltr" dominant-baseline="alphabetic">FLUJO ALTERNATIVO</text></g><g stroke-linecap="round"><g transform="translate(1008.2305429967819 225.9666666666667) rotate(0 85 0)"><path d="M-0.32 -0.39 C27.76 -0.4, 140.71 0.59, 169.16 0.46 M1.72 -1.65 C30.11 -2.07, 143.42 -1.62, 171.42 -1.42" stroke="#1971c2" stroke-width="4" fill="none"></path></g><g transform="translate(1008.2305429967819 225.9666666666667) rotate(0 85 0)"><path d="M147.89 7.01 C155.67 2.63, 165.58 1.56, 171.42 -1.42 M147.89 7.01 C152.52 6.05, 156.99 3, 171.42 -1.42" stroke="#1971c2" stroke-width="4" fill="none"></path></g><g transform="translate(1008.2305429967819 225.9666666666667) rotate(0 85 0)"><path d="M147.97 -10.09 C155.8 -8.31, 165.67 -3.22, 171.42 -1.42 M147.97 -10.09 C152.49 -7.58, 156.94 -7.16, 171.42 -1.42" stroke="#1971c2" stroke-width="4" fill="none"></path></g></g><mask></mask><g transform="translate(1294.8972096634388 209.3) rotate(0 203.044921875 20.7)"><text x="0" y="33.120703125" font-family="Helvetica, Segoe UI Emoji" font-size="36px" fill="#1971c2" text-anchor="start" style="white-space: pre;" direction="ltr" dominant-baseline="alphabetic">SALIDA DE EJECUCION</text></g><g stroke-linecap="round" transform="translate(910.0000000000146 10) rotate(0 405 145)"><path d="M32 0 C184.16 -1.29, 336.28 -1.46, 778 0 M32 0 C210.56 -0.57, 389.64 -0.38, 778 0 M778 0 C799.09 -0.61, 808.13 11.16, 810 32 M778 0 C797.28 0.77, 808.07 11.7, 810 32 M810 32 C810.16 117.29, 810.62 202.73, 810 258 M810 32 C811.65 117.73, 811.22 201.93, 810 258 M810 258 C811.02 278.99, 799.75 291.74, 778 290 M810 258 C810.65 277.92, 799.78 291.47, 778 290 M778 290 C507.76 290.02, 237.44 289.83, 32 290 M778 290 C585.29 290.08, 393.47 289.8, 32 290 M32 290 C12.03 288.75, -0.44 280.5, 0 258 M32 290 C10.77 289.16, 1.95 281.49, 0 258 M0 258 C1.28 197.1, 1.66 137.29, 0 32 M0 258 C-2.52 198.81, -2.22 137.96, 0 32 M0 32 C-0.57 10.92, 11.37 1, 32 0 M0 32 C0.2 9.81, 10.26 -1.28, 32 0" stroke="#2f9e44" stroke-width="4" fill="none"></path></g></svg>